<svg width="144" height="144" viewBox="0 0 144 144" fill="none" xmlns="http://www.w3.org/2000/svg">
<circle cx="72" cy="72" r="71.5" fill="white" stroke="black"/>
<path d="M25.7643 44.2886C23.8732 42.2525 22.9574 39.656 23.0015 37.0773C22.9541 34.278 24.0235 31.4681 26.1924 29.3731C26.2197 29.3458 26.2469 29.3186 26.275 29.2923C30.1995 25.5065 36.452 25.618 40.2395 29.5408C42.3574 31.735 44.4725 33.945 46.5842 36.1707C48.9639 38.6275 52.4518 42.2718 54.3797 44.2376L57.8262 47.8405H85.1729L88.6194 44.2376C90.5483 42.2718 94.0361 38.6275 96.4158 36.1707C98.5275 33.9449 100.643 31.7348 102.76 29.5408C106.548 25.6181 112.8 25.5066 116.725 29.2923C116.752 29.3186 116.78 29.3458 116.808 29.3731C118.976 31.468 120.046 34.2777 119.998 37.0773C120.042 39.6562 119.127 42.2527 117.236 44.2886L95.821 67.3324L95.5978 67.6003L96.2139 123.995C96.2736 129.461 91.8893 133.94 86.4218 133.999C86.3866 134 86.3515 134 86.3172 134C80.7898 134.002 76.3072 129.526 76.3036 124.002L76.2913 107.087C76.2895 104.444 74.1444 102.302 71.5002 102.302C68.855 102.302 66.7109 104.444 66.7091 107.087L66.6968 124.002C66.6924 129.526 62.2099 134.002 56.6831 134C56.648 134 56.6137 134 56.5786 133.999C51.1108 133.939 46.7258 129.461 46.7856 123.995L47.4016 67.6003L47.1793 67.3324L25.7643 44.2886ZM71.7562 44.4537C62.2224 44.4537 54.4946 36.7416 54.4946 27.2273C54.4946 17.713 62.2226 10 71.7562 10C81.2891 10 89.0171 17.713 89.0171 27.2273C89.0171 36.7416 81.2891 44.4537 71.7562 44.4537Z" fill="#00FFE0"/>
</svg>
