<svg width="194" height="185" viewBox="0 0 194 185" fill="none" xmlns="http://www.w3.org/2000/svg">
<path d="M126.47 161.04C119.23 161.04 111.046 158.27 102.486 152.811C89.117 144.286 76.298 130.14 66.391 112.98C56.484 95.82 50.643 77.647 49.944 61.806C49.225 45.498 54.038 33.51 63.497 28.048C72.956 22.586 85.746 24.413 99.509 33.189C112.878 41.714 125.697 55.86 135.604 73.02C145.511 90.18 151.352 108.353 152.051 124.194C152.77 140.502 147.956 152.49 138.497 157.951C134.922 160.016 130.869 161.04 126.47 161.04V161.04ZM75.548 28.96C71.837 28.96 68.454 29.805 65.497 31.512C57.393 36.19 53.289 46.886 53.939 61.629C54.61 76.839 60.262 94.366 69.855 110.98C79.447 127.594 91.798 141.251 104.635 149.438C117.078 157.373 128.392 159.165 136.496 154.488C144.6 149.81 148.704 139.114 148.054 124.371C147.383 109.161 141.731 91.634 132.138 75.02C122.546 58.406 110.195 44.749 97.358 36.562C89.455 31.522 82.007 28.96 75.548 28.96V28.96Z" fill="black"/>
<path d="M75.53 161.04C71.13 161.04 67.079 160.017 63.503 157.952C54.044 152.491 49.231 140.502 49.949 124.195C50.648 108.354 56.489 90.18 66.396 73.021C76.303 55.862 89.122 41.716 102.491 33.19C116.253 24.415 129.044 22.586 138.503 28.049C147.962 33.51 152.775 45.499 152.057 61.806C151.358 77.647 145.517 95.821 135.61 112.98C125.703 130.139 112.884 144.285 99.515 152.811C90.955 158.269 82.771 161.04 75.53 161.04V161.04ZM126.452 28.96C119.993 28.96 112.546 31.522 104.641 36.562C91.804 44.749 79.453 58.406 69.861 75.02C60.268 91.634 54.616 109.16 53.945 124.371C53.295 139.114 57.399 149.81 65.503 154.488C73.605 159.165 84.92 157.373 97.364 149.438C110.201 141.251 122.552 127.594 132.144 110.98C141.737 94.366 147.389 76.84 148.06 61.629C148.71 46.886 144.606 36.19 136.502 31.512C133.547 29.806 130.162 28.96 126.452 28.96V28.96Z" fill="black"/>
<path d="M101 132.96C81.186 132.96 62.526 128.931 48.459 121.616C33.976 114.085 26 103.922 26 93C26 82.078 33.976 71.915 48.459 64.384C62.526 57.069 81.186 53.04 101 53.04C120.814 53.04 139.474 57.069 153.541 64.384C168.024 71.915 176 82.078 176 93C176 103.922 168.024 114.085 153.541 121.616C139.474 128.931 120.814 132.96 101 132.96V132.96ZM101 57.04C61.851 57.04 30 73.171 30 93C30 112.829 61.851 128.96 101 128.96C140.149 128.96 172 112.829 172 93C172 73.171 140.149 57.04 101 57.04V57.04Z" fill="black"/>
<path d="M101 110C91.626 110 84 102.374 84 93C84 83.626 91.626 76 101 76C110.374 76 118 83.626 118 93C118 102.374 110.374 110 101 110ZM101 80C93.832 80 88 85.832 88 93C88 100.168 93.832 106 101 106C108.168 106 114 100.168 114 93C114 85.832 108.168 80 101 80Z" fill="black"/>
</svg>
