<svg width="144" height="144" viewBox="0 0 144 144" fill="none" xmlns="http://www.w3.org/2000/svg">
<circle cx="72" cy="72" r="71.5" fill="white" stroke="black"/>
<path d="M125.873 111.934L111.032 86.4139C110.489 85.3279 110.127 84.423 110.127 83.3371V52.9309C111.937 52.2069 113.385 50.397 113.385 48.2252C113.385 45.5103 111.032 43.1575 108.317 43.1575H101.078V32.1171C101.078 29.0403 99.9919 26.3255 97.8201 24.1536C95.8292 22.1628 92.7524 20.8958 89.8566 20.8958C83.5219 20.8958 78.4542 25.9635 78.4542 32.2981V41.8906C78.4542 43.1575 77.9113 44.2434 77.1873 45.1484C76.4634 45.8723 75.1964 46.4153 73.9295 46.4153H70.6717C68.1379 46.4153 66.147 44.4244 66.147 41.8906V29.2213C66.147 26.1445 65.0611 23.4297 62.8892 21.2578C60.8983 19.2669 57.8215 18 54.9257 18C48.591 18 43.5234 23.0677 43.5234 29.4023V43.1575H35.7408C33.026 43.1575 30.6731 45.5103 30.6731 48.4062C30.8541 50.578 32.121 52.2069 33.9309 52.9309V69.5819C33.9309 69.9439 33.7499 70.3059 33.207 70.4868C23.9765 74.1066 17.8229 83.3371 18.0039 93.4714C18.3659 106.503 28.8632 116.82 41.7124 117H42.0744C48.409 117 54.3817 114.466 58.9064 110.122C63.6121 105.598 66.146 99.4441 66.146 92.9285C66.146 82.9741 60.1733 74.2866 50.7619 70.6678C50.3999 70.4868 50.2189 70.1249 50.2189 69.7629V52.9309C52.0288 52.2069 53.4767 50.397 53.4767 48.2252C53.4767 45.5103 51.1239 43.1575 48.409 43.1575H47.1421V29.4023C47.1421 25.2396 50.7619 21.6198 54.9246 21.6198C56.9155 21.6198 58.9064 22.5247 60.3543 23.7917C61.8022 25.2396 62.5262 27.0495 62.5262 29.2213V41.8906C62.5262 46.2343 66.3269 50.0351 70.6707 50.0351H73.9285C76.1004 50.0351 78.2722 49.1301 79.7201 47.6822C81.168 46.2343 82.073 44.0624 82.073 41.8906V32.2981C82.073 28.1354 85.6928 24.5156 89.8555 24.5156C91.8464 24.5156 93.8373 25.4206 95.2852 26.6875C96.7331 28.1354 97.4571 29.9453 97.4571 32.1171V43.1575H95.6472C92.9323 43.1575 90.5795 45.5103 90.5795 48.4062C90.7605 50.578 92.0274 52.2069 93.8373 52.9309V83.3371C93.8373 84.423 93.6563 85.3279 92.9323 86.4139L78.0912 111.934C77.5483 112.839 77.5483 114.106 78.0912 115.192C78.6342 116.278 79.7201 116.821 80.9871 116.821H122.977C124.062 116.821 125.148 116.097 125.872 115.192C126.415 114.106 126.415 112.839 125.872 111.934H125.873ZM62.5272 92.7495C62.5272 98.1792 60.3553 103.428 56.3736 107.229C52.3918 111.029 47.3241 113.201 41.7135 113.201C31.0351 113.02 21.9856 104.152 21.6237 93.2925C21.4427 84.786 26.6914 77.0035 34.4739 73.9267C36.2838 73.3837 37.5507 71.5738 37.5507 69.7639V53.4749H46.6002V69.7639C46.6002 71.7548 47.8671 73.3837 49.496 73.9267C57.4595 76.8225 62.5272 84.243 62.5272 92.7495ZM49.858 48.2262C49.858 48.9502 49.134 49.6741 48.4101 49.6741H35.7408C35.0169 49.6741 34.2929 48.9502 34.2929 48.2262C34.2929 47.5023 35.0169 46.7783 35.7408 46.7783H48.4101C49.134 46.7783 49.858 47.5023 49.858 48.2262ZM95.6492 46.7783H108.318C109.042 46.7783 109.766 47.5023 109.766 48.2262C109.766 48.9502 109.042 49.6741 108.318 49.6741H95.6492C94.9253 49.6741 94.2013 48.9502 94.2013 48.2262C94.2013 47.5023 94.9253 46.7783 95.6492 46.7783ZM81.5321 113.2L96.0112 88.2238C96.9162 86.5949 97.2781 85.147 97.2781 83.3371V53.2929H106.328V83.3371C106.328 85.147 106.69 86.5949 107.595 88.2238L122.074 113.2H81.5321Z" fill="black"/>
</svg>
