<svg width="144" height="144" viewBox="0 0 144 144" fill="none" xmlns="http://www.w3.org/2000/svg">
<circle cx="72" cy="72" r="71.5" fill="white" stroke="black"/>
<path d="M92.7867 70.4871H100.666C101.716 70.4871 102.416 69.7866 102.416 68.7363C102.416 67.686 101.716 66.9854 100.666 66.9854H92.7867C91.7364 66.9854 91.0359 67.686 91.0359 68.7363C91.0359 69.7866 91.7364 70.4871 92.7867 70.4871Z" fill="black"/>
<path d="M94.7126 80.1168H116.249C117.299 80.1168 118 79.4163 118 78.366C118 77.3157 117.299 76.6151 116.249 76.6151H111.872C111.346 76.4402 109.771 73.6392 109.771 68.7363C109.771 63.8334 111.347 61.0322 111.872 60.8574H116.249C117.299 60.8574 118 60.1569 118 59.1065C118 58.0562 117.299 57.3557 116.249 57.3557H83.3325C87.36 52.8037 91.7371 42.2985 92.0868 35.9957C92.2617 31.6186 91.0365 28.4665 88.2354 26.366C85.9589 24.6151 82.9828 24.0895 80.3565 24.0895C80.8822 23.5638 81.232 22.8643 81.5817 21.9888C83.5075 17.4369 81.232 12.1843 81.232 12.0094C80.8822 11.134 80.0068 10.7842 79.1313 11.134C78.9565 11.134 73.5291 13.0598 71.6022 17.6117C71.6022 17.7866 71.6022 17.7866 71.4273 17.9615C68.9759 15.3352 66.3495 13.7592 66.1747 13.5843C65.2993 13.0587 64.2489 13.4094 63.7233 14.2849C63.1976 15.1603 63.5484 16.2106 64.4238 16.7363C64.4238 16.7363 70.0261 19.8883 71.4273 24.6151C68.1004 23.9146 62.4981 23.3899 58.6455 26.366C56.0192 28.2917 54.618 31.6186 54.7941 35.9957C54.969 42.2985 59.3461 52.8037 63.5484 57.3557H39.5611C35.0092 57.3557 31.3326 61.0322 31.3326 65.5842V72.0619C31.3326 73.8127 31.8583 75.3888 32.7337 76.7887H22.2285C17.6766 76.7887 14 80.4653 14 85.0173V91.4949C14 96.0469 17.6766 99.7235 22.2285 99.7235H32.7337C31.8583 101.125 31.3326 102.699 31.3326 104.45V110.928C31.3326 115.48 35.0092 119.156 39.5611 119.156H41.8377V122.132C41.8377 122.833 42.1874 123.358 42.7131 123.708C43.2387 124.058 43.9383 124.058 44.4639 123.708L50.5919 120.382L56.7199 123.708C57.0697 123.883 57.2456 123.883 57.5954 123.883C57.9451 123.883 58.2959 123.883 58.4708 123.708C58.9965 123.359 59.3462 122.833 59.3462 122.132V119.156L116.249 119.16C117.299 119.16 118 118.46 118 117.41C118 116.359 117.299 115.659 116.249 115.659H111.872C111.346 115.484 109.771 112.683 109.771 107.78C109.771 102.877 111.347 100.076 111.872 99.901H116.249C117.299 99.901 118 99.2004 118 98.1501C118 97.0998 117.299 96.3992 116.249 96.3992H94.5382C94.0126 96.2243 92.4376 93.4233 92.4376 88.5204C92.6125 82.9171 94.1885 80.2908 94.7132 80.1158L94.7126 80.1168ZM74.5777 19.0119C75.4531 17.0861 77.204 15.8598 78.4291 15.1605C78.7789 16.5616 79.1296 18.837 78.2542 20.5879C77.5537 22.3388 75.9777 23.389 74.7525 24.2645C74.5776 23.5639 74.4027 22.8634 74.0519 22.1638C74.0529 21.1135 74.053 20.0623 74.5777 19.0119ZM60.5708 29.1674C63.8977 26.5411 70.5502 27.9422 72.8269 28.6417H73.1766H73.3515C73.5264 28.6417 73.7013 28.6417 74.0521 28.4668C76.3286 27.7663 82.8064 26.5411 86.1332 28.9925C87.8841 30.2177 88.5846 32.4942 88.5846 35.6462C88.4097 43.3503 81.5812 55.6063 79.4807 55.9559C78.0796 55.6062 77.5549 55.0805 77.0293 54.5549C76.3287 54.0292 75.4533 53.1538 74.0533 53.1538H73.5277C71.7768 52.9789 70.7265 53.8543 70.0259 54.5549C69.5003 55.0805 68.8007 55.6052 67.5745 55.9559C65.298 55.6062 58.4706 43.3503 58.2945 35.6462C58.1206 32.6693 58.82 30.3925 60.5708 29.1674ZM72.8269 57.006H73.3525H73.8782C74.0531 57.006 74.2279 57.1809 74.4038 57.3558H72.3032C72.4771 57.006 72.6519 57.006 72.8269 57.006ZM35.0083 71.8883V65.4106C35.0083 62.7843 37.1089 60.6838 39.7351 60.6838H107.844C106.968 62.7844 106.442 65.7616 106.442 68.5627C106.442 71.3638 106.968 74.341 107.844 76.4415H99.0892L59.3447 76.4406V70.4874H76.6785C77.7288 70.4874 78.4294 69.7869 78.4294 68.7365C78.4294 67.6862 77.7288 66.9857 76.6785 66.9857H39.5603C38.51 66.9857 37.8094 67.6862 37.8094 68.7365C37.8094 69.7869 38.51 70.4874 39.5603 70.4874H42.0117V76.6154H39.7352C37.1099 76.6154 35.0083 74.5145 35.0083 71.8883ZM45.5135 78.366V78.1911V70.4871H55.8438V80.1168L51.4666 77.6654C51.1169 77.4905 50.941 77.4905 50.5912 77.4905C50.2414 77.4905 50.0655 77.4905 49.7158 77.6654L45.3386 79.9419V78.3659L45.5135 78.366ZM55.8438 118.636L51.4666 116.359C51.1169 116.184 50.941 116.184 50.5912 116.184C50.2414 116.184 50.0655 116.184 49.7158 116.359L45.3386 118.636V116.885V116.71V116.535V109.006H55.6689V118.636L55.8438 118.636ZM107.844 99.3763C106.969 101.477 106.443 104.454 106.443 107.255C106.443 110.056 106.969 113.033 107.844 115.134H59.3455V109.006H76.6792C77.7296 109.006 78.4301 108.305 78.4301 107.255C78.4301 106.205 77.7296 105.504 76.6792 105.504H39.561C38.5107 105.504 37.8102 106.205 37.8102 107.255C37.8102 108.305 38.5107 109.006 39.561 109.006H42.0124V115.134H39.7359C37.1096 115.134 35.0091 113.033 35.0091 110.407V103.93C35.0091 101.303 37.1097 99.2027 39.7359 99.2027H99.09L107.844 99.2017L107.844 99.3763ZM39.5608 95.8746H22.227C19.6008 95.8746 17.5002 93.7739 17.5002 91.1478V84.6701C17.5002 82.0438 19.6009 79.9433 22.227 79.9433H41.8372V82.9192C41.8372 83.6198 42.1869 84.1444 42.7126 84.4952C43.2382 84.845 43.9378 84.845 44.4634 84.4952L50.5915 81.1683L56.7195 84.4942C57.0692 84.6691 57.2451 84.6691 57.5949 84.6691C57.9447 84.6691 58.2954 84.6691 58.4703 84.4942C58.996 84.1444 59.3457 83.6188 59.3457 82.9182V79.9423H90.6861C89.8107 82.0429 89.285 85.02 89.285 87.8211C89.285 90.6222 89.8107 93.5995 90.6861 95.7H39.561L39.5608 95.8746Z" fill="black"/>
<path d="M34.3076 86.2449H24.5031C23.4527 86.2449 22.7522 86.9454 22.7522 87.9957C22.7522 89.046 23.4527 89.7466 24.5031 89.7466H34.3076C35.3579 89.7466 36.0585 89.046 36.0585 87.9957C36.0585 86.9454 35.183 86.2449 34.3076 86.2449V86.2449Z" fill="black"/>
<path d="M83.3321 86.2449H46.5641C45.5138 86.2449 44.8132 86.9454 44.8132 87.9957C44.8132 89.046 45.5138 89.7466 46.5641 89.7466H83.3321C84.3824 89.7466 85.083 89.046 85.083 87.9957C85.083 86.9454 84.3834 86.2449 83.3321 86.2449Z" fill="black"/>
<path d="M84.2073 107.255C84.2073 108.305 84.9078 109.006 85.9581 109.006H100.666C101.716 109.006 102.416 108.305 102.416 107.255C102.416 106.205 101.716 105.504 100.666 105.504H85.9581C84.9078 105.504 84.2073 106.205 84.2073 107.255Z" fill="black"/>
<path d="M80.1804 33.1939C80.1804 33.1939 81.0559 33.3688 81.5815 34.2442C82.1072 35.1196 82.1072 36.1699 81.7564 37.7459C81.5815 38.6213 82.1062 39.6717 82.9816 39.8465H83.3314C84.0319 39.8465 84.9073 39.3209 85.0822 38.4455C85.6079 35.9941 85.432 33.8935 84.5566 32.3174C83.3314 30.2168 81.2297 29.6912 81.0549 29.6912C80.1794 29.5163 79.1291 30.0409 78.9542 30.9164C78.6045 32.1435 79.1301 33.0189 80.1804 33.1939L80.1804 33.1939Z" fill="black"/>
</svg>
